<!--?xml version="1.0" encoding="utf-8"?-->
<!-- Generator: Adobe Illustrator 22.1.0, SVG Export Plug-In . SVG Version: 6.00 Build 0)  -->
<svg version="1.1" id="Layer_1" xmlns="http://www.w3.org/2000/svg" xmlns:xlink="http://www.w3.org/1999/xlink" x="0px" y="0px" viewBox="0 0 1065.7 290" style="" xml:space="preserve">
<style type="text/css">
	.st0{fill:none;stroke:#000000;stroke-width:12;stroke-miterlimit:10;}
</style>
<g>
	<path class="st0 vUNrvgFC_0" d="M97.9,262.3l-5.7-54.1H63.3l-5.7,54.1H31.4l29.9-238h33.4l29.9,238H97.9z M66.8,175.6h22L78.1,75.3h-0.7
		L66.8,175.6z"></path>
	<path class="st0 vUNrvgFC_1" d="M221.9,208.9c0,37.4-15.6,56.8-40.8,56.8c-24.7,0-40.3-19.4-40.3-56.8V24.3h25.2v183.6
		c0,17.3,5.7,23.8,14.8,23.8c9.1,0,14.8-6.5,14.8-23.8V24.3h26.2V208.9z"></path>
	<path class="st0 vUNrvgFC_2" d="M286.2,24.3c28.2,0,43.5,21.1,43.5,60.2v117.7c0,39.1-15.3,60.2-43.5,60.2h-37.6v-238H286.2z M274.8,229h10.4
		c12.6,0,18.3-9.2,18.3-29.2V86.8c0-20.1-5.7-29.2-18.3-29.2h-10.4V229z"></path>
	<path class="st0 vUNrvgFC_3" d="M355.1,262.3v-238h26.2v238H355.1z"></path>
	<path class="st0 vUNrvgFC_4" d="M491.3,81.1v124.5c0,37.4-16.1,60.2-42.3,60.2c-26.2,0-42.3-22.8-42.3-60.2V81.1c0-37.4,16.1-60.2,42.3-60.2
		C475.2,20.9,491.3,43.7,491.3,81.1z M433,81.4v123.8c0,17.7,5.7,27.2,16.1,27.2c10.4,0,16.1-9.5,16.1-27.2V81.4
		c0-17.7-5.7-27.2-16.1-27.2C438.7,54.2,433,63.7,433,81.4z"></path>
	<path class="st0 vUNrvgFC_5" d="M554.5,24.3c28.2,0,43.5,21.1,43.5,60.2v19c0,39.1-15.3,60.2-43.5,60.2h-11.6v98.6h-26.2v-238H554.5z
		 M542.9,130.4h10.6c12.6,0,18.3-9.2,18.3-29.2V86.8c0-20.1-5.7-29.2-18.3-29.2h-10.6V130.4z"></path>
	<path class="st0 vUNrvgFC_6" d="M674.6,262.3V158.6h-31.1v103.7h-26.2v-238h26.2v100.3h31.1V24.3h26.2v238H674.6z"></path>
	<path class="st0 vUNrvgFC_7" d="M729,262.3v-238h26.2v238H729z"></path>
	<path class="st0 vUNrvgFC_8" d="M853.3,228.3v34h-69.9v-238h26.2v204H853.3z"></path>
	<path class="st0 vUNrvgFC_9" d="M896.3,57.6v67.3h38.3v33.3h-38.3V229h47.4v33.3h-73.6v-238h73.6v33.3H896.3z"></path>
	<path class="st0 vUNrvgFC_10" d="M1035.9,75.3v6.8l-25.2,3.4V78c0-16.3-4.4-23.8-13.6-23.8c-7.7,0-13.1,5.8-13.1,19.4v5.1
		c0,13.3,4.9,24.1,22,45.6c23.2,29.6,31.1,49,31.1,76.5v11.6c0,35-16.1,53.4-40,53.4c-24.2,0-40.5-19.4-40.5-54.4v-15.6l25.2-3.4
		v16.3c0,16,5.4,23.8,14.8,23.8c7.9,0,14.3-5.8,14.3-22.8v-7.5c0-15-4.9-25.8-22-47.3c-23.2-29.6-31.1-49-31.1-74.8v-5.8
		c0-35,14.8-53.4,39-53.4C1021.1,20.9,1035.9,40.3,1035.9,75.3z"></path>
</g>
<style data-made-with="vivus-instant">.vUNrvgFC_0{stroke-dasharray:929 931;stroke-dashoffset:930;animation:vUNrvgFC_draw 2000ms linear 0ms forwards;}.vUNrvgFC_1{stroke-dasharray:1009 1011;stroke-dashoffset:1010;animation:vUNrvgFC_draw 2000ms linear 100ms forwards;}.vUNrvgFC_2{stroke-dasharray:983 985;stroke-dashoffset:984;animation:vUNrvgFC_draw 2000ms linear 200ms forwards;}.vUNrvgFC_3{stroke-dasharray:529 531;stroke-dashoffset:530;animation:vUNrvgFC_draw 2000ms linear 300ms forwards;}.vUNrvgFC_4{stroke-dasharray:969 971;stroke-dashoffset:970;animation:vUNrvgFC_draw 2000ms linear 400ms forwards;}.vUNrvgFC_5{stroke-dasharray:787 789;stroke-dashoffset:788;animation:vUNrvgFC_draw 2000ms linear 500ms forwards;}.vUNrvgFC_6{stroke-dasharray:1051 1053;stroke-dashoffset:1052;animation:vUNrvgFC_draw 2000ms linear 600ms forwards;}.vUNrvgFC_7{stroke-dasharray:529 531;stroke-dashoffset:530;animation:vUNrvgFC_draw 2000ms linear 700ms forwards;}.vUNrvgFC_8{stroke-dasharray:616 618;stroke-dashoffset:617;animation:vUNrvgFC_draw 2000ms linear 800ms forwards;}.vUNrvgFC_9{stroke-dasharray:795 797;stroke-dashoffset:796;animation:vUNrvgFC_draw 2000ms linear 900ms forwards;}.vUNrvgFC_10{stroke-dasharray:821 823;stroke-dashoffset:822;animation:vUNrvgFC_draw 2000ms linear 1000ms forwards;}@keyframes vUNrvgFC_draw{100%{stroke-dashoffset:0;}}@keyframes vUNrvgFC_fade{0%{stroke-opacity:1;}94.44444444444444%{stroke-opacity:1;}100%{stroke-opacity:0;}}</style></svg>
