<?xml version="1.0" encoding="utf-8"?>
<!-- Generator: Adobe Illustrator 22.1.0, SVG Export Plug-In . SVG Version: 6.00 Build 0)  -->
<svg version="1.1" id="Layer_1" xmlns="http://www.w3.org/2000/svg" xmlns:xlink="http://www.w3.org/1999/xlink" x="0px" y="0px"
	 viewBox="0 0 1280 1024" style="enable-background:new 0 0 1280 1024;" xml:space="preserve">
<style type="text/css">
	.st0{fill:none;stroke:#000000;stroke-width:12;stroke-miterlimit:10;}
</style>
<g>
	<path class="st0" d="M199,591.2l-5.7-54.1h-28.9l-5.7,54.1h-26.2l29.9-238h33.4l29.9,238H199z M167.9,504.5h22l-10.6-100.3h-0.7
		L167.9,504.5z"/>
	<path class="st0" d="M323.1,537.8c0,37.4-15.6,56.8-40.8,56.8c-24.7,0-40.3-19.4-40.3-56.8V353.1h25.2v183.6
		c0,17.3,5.7,23.8,14.8,23.8c9.1,0,14.8-6.5,14.8-23.8V353.1h26.2V537.8z"/>
	<path class="st0" d="M387.3,353.1c28.2,0,43.5,21.1,43.5,60.2V531c0,39.1-15.3,60.2-43.5,60.2h-37.6v-238H387.3z M376,557.8h10.4
		c12.6,0,18.3-9.2,18.3-29.2V415.7c0-20.1-5.7-29.2-18.3-29.2H376V557.8z"/>
	<path class="st0" d="M456.3,591.2v-238h26.2v238H456.3z"/>
	<path class="st0" d="M592.4,409.9v124.5c0,37.4-16.1,60.2-42.3,60.2c-26.2,0-42.3-22.8-42.3-60.2V409.9c0-37.4,16.1-60.2,42.3-60.2
		C576.4,349.7,592.4,372.5,592.4,409.9z M534.1,410.3V534c0,17.7,5.7,27.2,16.1,27.2c10.4,0,16.1-9.5,16.1-27.2V410.3
		c0-17.7-5.7-27.2-16.1-27.2C539.8,383.1,534.1,392.6,534.1,410.3z"/>
	<path class="st0" d="M655.7,353.1c28.2,0,43.5,21.1,43.5,60.2v19c0,39.1-15.3,60.2-43.5,60.2h-11.6v98.6h-26.2v-238H655.7z
		 M644.1,459.2h10.6c12.6,0,18.3-9.2,18.3-29.2v-14.3c0-20.1-5.7-29.2-18.3-29.2h-10.6V459.2z"/>
	<path class="st0" d="M775.8,591.2V487.5h-31.1v103.7h-26.2v-238h26.2v100.3h31.1V353.1H802v238H775.8z"/>
	<path class="st0" d="M830.1,591.2v-238h26.2v238H830.1z"/>
	<path class="st0" d="M954.4,557.2v34h-69.9v-238h26.2v204H954.4z"/>
	<path class="st0" d="M997.4,386.5v67.3h38.3v33.3h-38.3v70.7h47.4v33.3h-73.6v-238h73.6v33.3H997.4z"/>
	<path class="st0" d="M1137.1,404.1v6.8l-25.2,3.4v-7.5c0-16.3-4.4-23.8-13.6-23.8c-7.7,0-13.1,5.8-13.1,19.4v5.1
		c0,13.3,4.9,24.1,22,45.6c23.2,29.6,31.1,49,31.1,76.5v11.6c0,35-16.1,53.4-40,53.4c-24.2,0-40.5-19.4-40.5-54.4v-15.6l25.2-3.4
		v16.3c0,16,5.4,23.8,14.8,23.8c7.9,0,14.3-5.8,14.3-22.8V531c0-15-4.9-25.8-22-47.3c-23.2-29.6-31.1-49-31.1-74.8v-5.8
		c0-35,14.8-53.4,39-53.4S1137.1,369.1,1137.1,404.1z"/>
</g>
</svg>
